<?xml version="1.0" encoding="utf-8"?>
<svg version="1.1"
	 xmlns="http://www.w3.org/2000/svg"  x="0px" y="0px" viewBox="0 0 106 106"
	 enable-background="new 0 0 106 106" xml:space="preserve">
<g id="layer1" transform="translate(-1690.9939,-660.30924)" >
	<path id="path3498" fill="#25A162" d="
		M1762.1,663.6v7.6l-0.9,5.8l-33,0.3l-2.7,31.3c0,0,0-0.3,10.6-1.4s22.8,4.8,25.2,8.2c2.4,3.4,9.2,18.1-4.8,29
		c-14,10.9-35.4,0-35.4,0l0,0h0h-0.3h-0.3v4.4v11.8c7.3,3.7,15.4,5.6,23.6,5.6c29.3,0,53-23.7,53-53c0-21.8-13.4-41.4-33.8-49.3
		C1762.8,663.8,1762.5,663.7,1762.1,663.6L1762.1,663.6z M1718.8,759.9c0.5,0.3,1,0.5,1.5,0.8
		C1719.8,760.5,1719.3,760.2,1718.8,759.9z"/>
	<path id="path3500" fill-rule="evenodd" clip-rule="evenodd" fill="#DC524A" d="M1744,660.3
		c-29.3,0-53,23.7-53,53c0,19.5,10.7,37.4,27.8,46.6c0.5,0.3,1,0.5,1.5,0.8v-11.8v-4.4h0.6h0l0,0c0,0,21.5,10.9,35.4,0
		c14-10.9,7.2-25.6,4.8-29c-2.4-3.4-14.7-9.2-25.2-8.2c-10.6,1-10.6,1.4-10.6,1.4l2.7-31.3l31.5-0.3h2.5v-5.8v-1.8v-5.8
		C1756.3,661.5,1750.2,660.3,1744,660.3L1744,660.3z"/>
	<g id="text3502">
		<path id="path844"  fill="#FFFFFF" d="M1743.5,703.5c7.3,0,13,1.9,17.3,5.8
			c4.2,3.9,6.4,9.1,6.4,15.7c0,7.7-2.4,13.7-7.3,18.1c-4.8,4.3-11.7,6.5-20.5,6.5c-8.1,0-14.4-1.3-19-3.9v-10.5
			c2.7,1.5,5.7,2.7,9.2,3.5c3.5,0.8,6.7,1.2,9.6,1.2c5.2,0,9.2-1.2,11.9-3.5c2.7-2.3,4.1-5.8,4.1-10.3c0-8.6-5.5-12.9-16.5-12.9
			c-1.5,0-3.5,0.2-5.7,0.5c-2.3,0.3-4.3,0.6-6,1l-5.2-3.1l2.8-35.2h37.5v10.3h-27.3l-1.6,17.9c1.2-0.2,2.6-0.4,4.2-0.7
			C1739,703.6,1741.1,703.5,1743.5,703.5L1743.5,703.5z"/>
	</g>
</g>
</svg>
